<svg width="48" height="48" viewBox="0 0 48 48" fill="none" xmlns="http://www.w3.org/2000/svg">
<path d="M24.0016 47.8996C10.8016 47.8996 0.101562 37.1996 0.101562 23.9996C0.101562 10.7996 10.8016 0.0996094 24.0016 0.0996094C37.2016 0.0996094 47.9016 10.7996 47.9016 23.9996C47.9016 37.1996 37.2016 47.8996 24.0016 47.8996ZM24.0016 2.69962C12.3016 2.69962 2.70156 12.2996 2.70156 23.9996C2.70156 35.6996 12.3016 45.2996 24.0016 45.2996C35.7016 45.2996 45.3016 35.6996 45.3016 23.9996C45.3016 12.2996 35.7016 2.69962 24.0016 2.69962Z" fill="white"/>
<path d="M24.5008 37.6989L10.8008 23.9988L24.5008 10.2988L26.3008 12.1989L14.6008 23.9988L26.3008 35.7988L24.5008 37.6989Z" fill="white"/>
<path d="M12.7031 22.5996H36.7031V25.3996H12.7031V22.5996Z" fill="white"/>
</svg>
