<svg width="28" height="28" viewBox="0 0 28 28" fill="none" xmlns="http://www.w3.org/2000/svg">
<path d="M11.9007 11.978L11.895 11.9737C11.7244 11.8335 11.5048 11.7578 11.222 11.7578H9.92435C9.86258 11.7578 9.8125 11.8075 9.8125 11.8688V13.375C9.8125 13.4363 9.86258 13.486 9.92435 13.486H11.222C11.5086 13.486 11.729 13.4052 11.899 13.2546C12.0653 13.1002 12.1526 12.8974 12.1526 12.6273C12.1526 12.2967 12.0561 12.0963 11.9007 11.978Z" fill="#7E828B"/>
<path d="M18.6802 14.8544L18.6744 14.8493C18.5373 14.7187 18.3393 14.6426 18.0554 14.6426H16.5727C16.5109 14.6426 16.4609 14.6923 16.4609 14.7536V16.1302C16.4609 16.1915 16.5109 16.2412 16.5727 16.2412H18.0445C18.3649 16.2412 18.57 16.1641 18.6957 16.0433C18.8202 15.9236 18.8989 15.7298 18.8989 15.4257C18.8989 15.1562 18.8185 14.9758 18.6802 14.8544Z" fill="#7E828B"/>
<path d="M16.5727 13.0755H17.8486C18.1181 13.0755 18.3017 13.0136 18.4236 12.9138C18.5448 12.8134 18.6159 12.6635 18.6159 12.4329C18.6159 12.1814 18.5443 12.0251 18.4311 11.9274C18.31 11.823 18.1248 11.7578 17.8486 11.7578H16.5727C16.5109 11.7578 16.4609 11.8075 16.4609 11.8688V12.9645C16.4609 13.0258 16.5109 13.0755 16.5727 13.0755Z" fill="#7E828B"/>
<path fill-rule="evenodd" clip-rule="evenodd" d="M15.6496 3.4855C14.6288 2.90067 13.3712 2.90067 12.3504 3.4855L5.64957 7.32471C4.62881 7.90955 4 8.99037 4 10.1601V17.8385C4 19.0082 4.62881 20.089 5.64957 20.6738L12.3504 24.513C13.3712 25.0979 14.6288 25.0979 15.6496 24.513L22.3504 20.6738C23.3712 20.089 24 19.0082 24 17.8385V10.1601C24 8.99037 23.3712 7.90955 22.3504 7.32471L15.6496 3.4855ZM7.96504 17.4795V10.5187C7.96504 10.2486 8.18569 10.0297 8.45787 10.0297H11.2467C12.0611 10.0297 12.7409 10.2611 13.2682 10.7373C13.8 11.2101 14.0603 11.8474 14.0603 12.6274C14.0603 13.4055 13.8085 14.0422 13.2921 14.5156C12.7834 14.9885 12.0936 15.2143 11.2467 15.2143H9.92725C9.86548 15.2143 9.8154 15.264 9.8154 15.3253V17.4795C9.8154 17.7496 9.59475 17.9686 9.32257 17.9686H8.45787C8.18569 17.9686 7.96504 17.7496 7.96504 17.4795ZM20.0262 17.2879L20.0239 17.2901C19.5287 17.7574 18.7392 17.9686 17.7049 17.9686H15.1011C14.829 17.9686 14.6083 17.7496 14.6083 17.4795V10.5187C14.6083 10.2486 14.829 10.0297 15.1011 10.0297H18.0314C18.7456 10.0297 19.3371 10.2404 19.7854 10.6767C20.2365 11.1013 20.4641 11.6295 20.4641 12.2493C20.4641 12.8416 20.2416 13.3195 19.8048 13.6693C20.0388 13.8155 20.2368 14.0092 20.398 14.2486C20.6335 14.58 20.7471 14.9754 20.7471 15.4249C20.7471 16.1864 20.5114 16.8143 20.0262 17.2879Z" fill="#7E828B"/>
</svg>
