<svg width="100" height="100" viewBox="0 0 100 100" fill="none" xmlns="http://www.w3.org/2000/svg">
<path d="M67.8395 56.35V61.85C76.4595 53.23 82.2095 61.85 82.2095 61.85C112.139 40.78 90.3495 2 90.3495 2C90.3495 2 89.6295 19.24 75.2695 29.77V46.29C75.0295 51.08 71.4295 54.19 67.8395 56.35ZM17.7895 62.09C17.7895 62.09 21.8595 55.63 28.5695 59.46L20.9095 48.2L27.6095 32.2C10.3695 21.66 9.60948 2.27 9.60948 2.27C9.60948 2.27 -12.1405 41 17.7895 62.09ZM26.8895 83.89L32.3995 65.21L32.1595 64.73L19.2295 77.9C16.1139 81.0586 11.93 82.9383 7.49948 83.17H2.99948L1.99948 85.56L13.9995 97.06L26.8895 83.89ZM92.2695 83.89C90.0568 83.8578 87.8741 83.3737 85.8552 82.4675C83.8364 81.5612 82.024 80.2519 80.5295 78.62L68.7995 66.88L72.6295 84.6L85.7995 98L97.7995 86.51L96.7995 84.11L92.2695 83.89ZM55.8695 42.7C55.8695 42.94 55.6295 43.18 55.6295 43.41H56.3495C62.0995 43.89 64.0095 46.05 65.4495 51.08C66.3464 50.5759 67.1539 49.9271 67.8395 49.16C68.8395 48.16 69.5195 47.49 69.5195 46.53V28.09C69.5068 27.6244 69.3321 27.1779 69.0254 26.8273C68.7187 26.4768 68.2993 26.2443 67.8395 26.17L36.4695 20.43H35.9995C35.3656 20.43 34.7577 20.6818 34.3095 21.13C33.8613 21.5782 33.6095 22.1861 33.6095 22.82V29.53L58.5095 32.88L55.8695 42.7Z" fill="#D0A85C"/>
<path d="M60.1806 54.0005C58.9806 48.7305 58.7406 49.4505 54.4306 49.2105L40.7806 48.0005V44.1305H46.2906C47.2245 44.1519 48.1375 43.8531 48.878 43.2837C49.6184 42.7142 50.1416 41.9085 50.3606 41.0005L51.3606 37.6505L32.4006 35.0005L27.4006 47.2205L39.1406 64.2205L33.6006 82.6905L49.8806 98.0005L66.4106 82.9305C66.4106 82.9305 60.1806 54.4305 60.1806 53.9305V54.0005ZM49.8806 2.23047L45.0906 12.5205L49.8806 16.3505L54.6706 12.5205L49.8806 2.23047ZM62.1006 9.41047L63.5306 15.4105H69.5306L72.4006 4.41047L62.1006 9.41047ZM30.2506 15.4005H36.2506L36.4906 14.6805L37.6906 9.41047L27.3906 4.41047L30.2506 15.4005Z" fill="#D0A85C"/>
</svg>
