<svg width="100" height="100" viewBox="0 0 100 100" fill="none" xmlns="http://www.w3.org/2000/svg">
<path d="M28.6894 27.2504H35.6294L37.5494 20.3104L24.1394 12.4004L28.6894 27.2504ZM71.3094 27.2504L75.8594 12.4004L62.4494 20.3104L64.3694 27.2504H71.3094ZM71.3094 35.3904C69.8794 35.3904 59.0994 31.5604 59.0994 31.5604L49.9994 42.3404L40.8994 31.5604C40.8994 31.5604 30.3594 35.3904 28.6894 35.3904C21.0194 35.3904 23.8994 28.2104 23.8994 28.2104C23.8994 28.2104 4.25938 48.3204 2.10938 64.1304C2.10938 64.1304 7.84937 55.2704 26.5294 50.9604C29.3826 56.8535 34.3374 61.4658 40.4194 63.8904C39.6994 60.7804 38.9794 57.1804 38.2694 53.8304C36.8085 52.5657 35.5178 51.1169 34.4294 49.5204C35.1494 49.5204 41.6194 48.8004 42.5794 48.8004C43.2894 51.4404 47.1294 77.5404 47.1294 77.5404L40.1294 87.8404V97.8404L49.9994 93.8204L59.8194 97.8904V87.6004L52.8194 77.3004C52.8194 77.3004 56.6594 51.2004 57.3694 48.5604C58.0894 48.5604 64.5594 49.2804 65.5194 49.2804C64.5022 50.9313 63.2024 52.3902 61.6794 53.5904C60.7872 56.9038 60.0696 60.2618 59.5294 63.6504C65.6787 61.314 70.678 56.677 73.4694 50.7204C92.1494 55.2704 97.8894 63.8904 97.8894 63.8904C95.7394 48.3204 76.0994 28.0004 76.0994 28.0004C76.0994 28.0004 78.9794 35.4204 71.3094 35.4204" fill="#D0A85C"/>
<path d="M49.9998 2.10938L42.3398 23.4194H42.5798L49.9998 33.2394L57.4198 23.4194H57.6598L49.9998 2.10938Z" fill="#D0A85C"/>
</svg>
