<svg width="100" height="100" viewBox="0 0 100 100" fill="none" xmlns="http://www.w3.org/2000/svg">
<path d="M90.4006 2.10938C90.4006 29.4094 65.0006 38.7394 65.0006 38.7394L60.9406 60.9994C60.6651 61.7684 60.5034 62.5736 60.4606 63.3894C60.5288 65.1857 61.2903 66.8857 62.5853 68.1325C63.8803 69.3793 65.608 70.0758 67.4056 70.0758C69.2032 70.0758 70.9309 69.3793 72.2259 68.1325C73.5209 66.8857 74.2824 65.1857 74.3506 63.3894C74.367 61.7654 73.793 60.1907 72.7353 58.9583C71.6776 57.7259 70.2083 56.9196 68.6006 56.6894C75.3106 45.1894 84.8906 50.6894 84.8906 50.6894C86.3206 49.2494 87.5206 47.8094 88.7206 46.6194L81.5306 43.7394H90.8706C93.3937 40.3316 95.3365 36.5304 96.6206 32.4894L87.0006 28.6894H97.3006C98.1263 24.0233 97.9374 19.2341 96.7467 14.6476C95.5561 10.061 93.3916 5.78467 90.4006 2.10938V2.10938ZM35.3206 38.7394C35.3206 38.7394 9.9306 29.4094 9.9306 2.10938C9.9306 2.10938 0.110598 12.8794 2.5106 28.2094H12.8106L3.2306 31.9994C4.22787 35.1176 5.59423 38.1054 7.3006 40.8994H18.3006L9.6906 44.4894C11.2418 46.6609 13.0074 48.671 14.9606 50.4894C14.9606 50.4894 24.5406 44.9794 31.2506 56.4894C29.6429 56.7196 28.1736 57.5259 27.1159 58.7583C26.0582 59.9907 25.4842 61.5654 25.5006 63.1894C25.4757 64.2192 25.68 65.2417 26.0987 66.1829C26.5175 67.1241 27.1402 67.9604 27.9219 68.6313C28.7036 69.3023 29.6246 69.7911 30.6184 70.0623C31.6122 70.3336 32.6539 70.3805 33.668 70.1998C34.6822 70.019 35.6435 69.6151 36.4823 69.0172C37.3212 68.4193 38.0167 67.6424 38.5184 66.7428C39.0202 65.8431 39.3157 64.8431 39.3835 63.8152C39.4513 62.7873 39.2898 61.7572 38.9106 60.7994L35.3206 38.7394ZM45.1406 22.6994L47.7706 15.9994H52.5606L55.1906 22.9394L50.1906 36.8294L45.1406 22.6994ZM44.1406 6.69938L37.1406 22.6994L47.2906 48.0794V71.7894L42.2906 87.7894L47.2906 97.7894H53.0006L58.0006 87.7894L53.0006 71.7894V48.0794L63.1006 22.6994L56.1006 6.69938H44.1406Z" fill="#D0A85C"/>
</svg>
