<svg width="96" height="96" viewBox="0 0 96 96" fill="none" xmlns="http://www.w3.org/2000/svg">
<path d="M71.1105 36.7398C67.7605 32.4298 65.1105 26.7398 65.1105 17.8298C65.1105 13.7598 61.5205 9.67984 57.4505 5.82984C52.6605 1.51984 51.7005 0.0898438 47.8705 0.0898438C44.0405 0.0898438 43.0805 1.51984 38.5305 5.82984C34.4605 9.65984 30.8705 13.7398 30.8705 17.8298C30.8705 26.6898 27.9905 32.4298 24.8705 36.5098L10.7605 50.8698L0.230469 43.6898V56.6198C0.230469 56.6198 0.47047 81.9998 37.5805 95.8898C37.5805 95.8898 23.4505 88.7099 21.3005 64.7598C21.0605 63.0898 21.0605 55.6598 21.0605 54.4698C25.0575 60.7235 29.6271 66.5921 34.7105 71.9998C33.9905 70.7998 33.2705 69.3598 32.5505 68.1698C27.5505 57.6298 28.4805 49.9698 30.8805 44.6998C32.5507 41.1576 35.1064 38.1059 38.3005 35.8398L47.8805 45.4198L57.4605 35.8398C60.6546 38.1059 63.2102 41.1576 64.8805 44.6998C67.2805 49.9698 68.4705 57.6298 63.4505 67.9298C62.7305 69.3098 62.0005 70.5098 61.2905 71.9998C66.3738 66.5921 70.9434 60.7235 74.9405 54.4698C74.9405 55.6598 74.9405 63.0898 74.7005 64.7598C72.3105 88.7099 58.4205 95.8898 58.4205 95.8898C95.5305 81.9998 95.7705 56.6198 95.7705 56.6198V43.6898L85.2405 50.8698L71.1105 36.7398Z" fill="#D0A85C"/>
</svg>
