<svg width="98" height="96" viewBox="0 0 98 96" fill="none" xmlns="http://www.w3.org/2000/svg">
<path d="M66.8395 54.35V59.85C75.4595 51.23 81.2095 59.85 81.2095 59.85C111.139 38.78 89.3495 0 89.3495 0C89.3495 0 88.6295 17.24 74.2695 27.77V44.29C74.0295 49.08 70.4295 52.19 66.8395 54.35ZM16.7895 60.09C16.7895 60.09 20.8595 53.63 27.5695 57.46L19.9095 46.2L26.6095 30.2C9.36948 19.66 8.60948 0.27 8.60948 0.27C8.60948 0.27 -13.1405 39 16.7895 60.09ZM25.8895 81.89L31.3995 63.21L31.1595 62.73L18.2295 75.9C15.1139 79.0586 10.93 80.9383 6.49948 81.17H1.99948L0.999482 83.56L12.9995 95.06L25.8895 81.89ZM91.2695 81.89C89.0568 81.8578 86.8741 81.3737 84.8552 80.4675C82.8364 79.5612 81.0241 78.2519 79.5295 76.62L67.7995 64.88L71.6295 82.6L84.7995 96L96.7995 84.51L95.7995 82.11L91.2695 81.89ZM54.8695 40.7C54.8695 40.94 54.6295 41.18 54.6295 41.41H55.3495C61.0995 41.89 63.0095 44.05 64.4495 49.08C65.3464 48.5759 66.1539 47.9271 66.8395 47.16C67.8395 46.16 68.5195 45.49 68.5195 44.53V26.09C68.5068 25.6244 68.3321 25.1779 68.0254 24.8273C67.7187 24.4768 67.2993 24.2443 66.8395 24.17L35.4695 18.43H34.9995C34.3656 18.43 33.7577 18.6818 33.3095 19.13C32.8613 19.5782 32.6095 20.1861 32.6095 20.82V27.53L57.5095 30.88L54.8695 40.7Z" fill="#D0A85C"/>
</svg>
