<svg width="96" height="96" viewBox="0 0 96 96" fill="none" xmlns="http://www.w3.org/2000/svg">
<path d="M36.7516 24.8798C32.4416 28.2298 26.7516 30.8798 17.8416 30.8798C13.7716 30.8798 9.69156 34.4698 5.84156 38.5398C1.53156 43.3298 0.10156 44.2898 0.10156 48.1198C0.101561 51.9498 1.53156 52.9098 5.84156 57.4598C9.67156 61.5298 13.7516 65.1198 17.8416 65.1198C26.7016 65.1198 32.4416 67.9998 36.5216 71.1198L50.8816 85.2298L43.7016 95.7598L56.6316 95.7598C56.6316 95.7598 82.0116 95.5198 95.9016 58.4098C95.9016 58.4098 88.7216 72.5398 64.7716 74.6898C63.1016 74.9298 55.6716 74.9298 54.4816 74.9298C60.7352 70.9327 66.6038 66.3631 72.0116 61.2798C70.8116 61.9998 69.3716 62.7198 68.1816 63.4398C57.6416 68.4398 49.9816 67.5098 44.7116 65.1098C41.1693 63.4395 38.1177 60.8839 35.8516 57.6898L45.4316 48.1098L35.8516 38.5298C38.1177 35.3357 41.1693 32.78 44.7116 31.1098C49.9816 28.7098 57.6416 27.5198 67.9416 32.5398C69.3216 33.2598 70.5216 33.9898 72.0116 34.6998C66.6038 29.6164 60.7352 25.0468 54.4816 21.0498C55.6716 21.0498 63.1016 21.0498 64.7716 21.2898C88.7216 23.6798 95.9016 37.5698 95.9016 37.5698C82.0116 0.459763 56.6316 0.21977 56.6316 0.21977L43.7016 0.21977L50.8816 10.7498L36.7516 24.8798Z" fill="white"/>
</svg>
