<svg width="18" height="17" viewBox="0 0 18 17" fill="none" xmlns="http://www.w3.org/2000/svg">
<path fill-rule="evenodd" clip-rule="evenodd" d="M6.00152 17.0003C6.5538 17.0003 7.00152 16.5526 7.00152 16.0003V12.0003C7.00152 11.448 7.44922 11.0003 8.00152 11.0003H10.0015C10.5538 11.0003 11.0015 11.448 11.0015 12.0003V16.0003C11.0015 16.5526 11.4492 17.0003 12.0015 17.0003H15.0015C15.5538 17.0003 16.0015 16.5526 16.0015 16.0003V9.83234C16.0015 9.37284 16.374 9.00034 16.8335 9.00034C17.5959 9.00034 17.9567 8.06004 17.39 7.55004L9.67052 0.602413C9.29022 0.260133 8.71282 0.260133 8.33252 0.602413L0.613022 7.55004C0.0462723 8.06004 0.407092 9.00034 1.16956 9.00034C1.62904 9.00034 2.00152 9.37284 2.00152 9.83234V16.0003C2.00152 16.5526 2.44924 17.0003 3.00152 17.0003H6.00152Z" fill="#7E828B"/>
</svg>
