<svg width="100" height="100" viewBox="0 0 100 100" fill="none" xmlns="http://www.w3.org/2000/svg">
<path d="M84.4794 77.2991H97.8894L94.0594 64.3691H84.4794C79.2684 64.372 74.1178 65.4837 69.3695 67.6302C64.6212 69.7768 60.384 72.9091 56.9394 76.8191L49.9994 84.9991L43.0594 76.8591C39.6184 72.9418 35.3828 69.802 30.6344 67.6485C25.8859 65.4949 20.7334 64.377 15.5194 64.3691H5.93938L2.10938 77.2991H15.5194C20.7303 77.302 25.881 78.4137 30.6293 80.5602C35.3775 82.7068 39.6147 85.8391 43.0594 89.7491L43.7694 90.4691H34.6694V97.8891H65.5694V90.4691H56.4694L57.1794 89.7491C60.5603 85.8249 64.7514 82.6799 69.4642 80.5307C74.177 78.3814 79.2996 77.2789 84.4794 77.2991" fill="#D0A85C"/>
<path d="M56.229 54.3102L49.999 62.2102L43.769 54.3102C43.0382 53.4011 42.62 52.2805 42.5768 51.1149C42.5336 49.9493 42.8675 48.8008 43.529 47.8402L49.999 37.3102L56.469 47.8402C57.1305 48.8008 57.4645 49.9493 57.4213 51.1149C57.378 52.2805 56.9599 53.4011 56.229 54.3102V54.3102ZM42.579 28.9302L34.669 41.6202C33.2536 43.9147 32.565 46.5836 32.6935 49.2766C32.822 51.9696 33.7616 54.5608 35.389 56.7102L49.999 75.1402L64.609 56.7102C66.286 54.5833 67.2569 51.9858 67.3859 49.2805C67.515 46.5751 66.7959 43.897 65.329 41.6202L49.999 17.0002L49.519 17.7202C48.9625 18.2921 48.2898 18.738 47.5463 19.0278C46.8028 19.3176 46.0058 19.4446 45.209 19.4002C41.139 19.4002 38.029 10.7802 49.759 2.16016C49.759 2.16016 21.019 7.66016 34.909 32.5702L42.579 28.9302Z" fill="#D0A85C"/>
</svg>
