<svg width="18" height="18" viewBox="0 0 18 18" fill="none" xmlns="http://www.w3.org/2000/svg">
<path fill-rule="evenodd" clip-rule="evenodd" d="M18 1.5C18 0.67157 17.3284 0 16.5 0H15.5C14.6716 0 14 0.67157 14 1.5V16.5C14 17.3284 14.6716 18 15.5 18H16.5C17.3284 18 18 17.3284 18 16.5V1.5ZM7 7.5C7 6.6716 7.6716 6 8.5 6H9.5C10.3284 6 11 6.6716 11 7.5V16.5C11 17.3284 10.3284 18 9.5 18H8.5C7.6716 18 7 17.3284 7 16.5V7.5ZM0 13.5C0 12.6716 0.67157 12 1.5 12H2.5C3.32843 12 4 12.6716 4 13.5V16.5C4 17.3284 3.32843 18 2.5 18H1.5C0.67157 18 0 17.3284 0 16.5V13.5Z" fill="#7E828B"/>
</svg>
