<svg width="100" height="100" viewBox="0 0 100 100" fill="none" xmlns="http://www.w3.org/2000/svg">
<path d="M85.9194 63.8908L54.9994 90.0008V67.4808H62.4194V58.3808H37.5494V67.4808H44.9994V90.2308L14.0794 63.8908L8.32938 21.0008L35.8694 10.4908C44.9605 6.97042 55.0383 6.97042 64.1294 10.4908L91.6694 21.0008L85.9194 63.8908ZM66.2794 5.00079C55.7633 1.17422 44.2354 1.17422 33.7194 5.00079L2.10938 17.1908L8.80938 66.7608L41.8594 95.0008C44.164 96.8637 47.036 97.8834 49.9994 97.8908C52.9699 97.9253 55.8557 96.9008 58.1394 95.0008L91.1894 66.7608L97.8894 17.1908L66.2794 5.00079Z" fill="#D0A85C"/>
<path d="M78.739 32.2797L61.999 21.2597V26.5297H37.999V21.2597L21.739 28.4497C21.1572 28.7121 20.6782 29.159 20.3763 29.7213C20.0744 30.2836 19.9664 30.9298 20.069 31.5597L24.379 50.7197C24.5326 51.2274 24.8092 51.6894 25.1843 52.0644C25.5593 52.4395 26.0213 52.7161 26.529 52.8697L37.789 55.2697V49.9997H61.729V55.2697L73.229 52.8697C73.7726 52.7943 74.2767 52.5435 74.6648 52.1555C75.0529 51.7674 75.3036 51.2633 75.379 50.7197L79.689 35.1497C79.8811 34.6296 79.8864 34.0588 79.704 33.5353C79.5215 33.0117 79.1627 32.5678 78.689 32.2797H78.739ZM57.419 20.0697H42.579L49.999 11.6797L57.419 20.0697Z" fill="#D0A85C"/>
</svg>
